<svg xmlns="http://www.w3.org/2000/svg" width="24" height="24" viewBox="0 0 24 24" fill="none">
  <path d="M1.5484 12.3871H6.19356V8.51611H1.5484V12.3871ZM2.32259 10.8387H3.09679V11.6129H2.32259V10.8387ZM5.41937 9.29031V10.0645H4.64517V10.8387H5.41937V11.6129H3.87098V10.0645H2.32259V9.29031H5.41937Z" fill="white"/>
  <path d="M10.8387 12.3871C10.565 12.3871 10.2991 12.4637 10.0634 12.6019C9.83498 12.4688 9.5733 12.3871 9.29033 12.3871C8.43639 12.3871 7.74194 13.0815 7.74194 13.9355C7.74194 14.7894 8.43639 15.4839 9.29033 15.4839C9.5733 15.4839 9.83498 15.4022 10.0634 15.269C10.2991 15.4072 10.565 15.4839 10.8387 15.4839C11.6927 15.4839 12.3871 14.7894 12.3871 13.9355C12.3871 13.0815 11.6927 12.3871 10.8387 12.3871ZM8.51614 13.9355C8.51614 13.5085 8.86336 13.1613 9.29033 13.1613C9.7173 13.1613 10.0645 13.5085 10.0645 13.9355C10.0645 14.3624 9.7173 14.7097 9.29033 14.7097C8.86336 14.7097 8.51614 14.3624 8.51614 13.9355ZM10.8387 14.7097C10.7652 14.7097 10.7001 14.6973 10.6394 14.6802C10.7625 14.4584 10.8387 14.2068 10.8387 13.9355C10.8387 13.6641 10.7625 13.4125 10.6394 13.1907C10.7001 13.1737 10.7652 13.1613 10.8387 13.1613C11.2657 13.1613 11.6129 13.5085 11.6129 13.9355C11.6129 14.3624 11.2657 14.7097 10.8387 14.7097Z" fill="white"/>
  <path d="M1.5484 13.1613H6.19356V13.9354H1.5484V13.1613Z" fill="white"/>
  <path d="M1.5484 14.7097H6.19356V15.4839H1.5484V14.7097Z" fill="white"/>
  <path d="M8.51611 8.51611H12.3871V9.29031H8.51611V8.51611Z" fill="white"/>
  <path d="M10.0645 10.0646H10.8387V10.8388H10.0645V10.0646Z" fill="white"/>
  <path d="M11.6129 10.0646H12.3871V10.8388H11.6129V10.0646Z" fill="white"/>
  <path d="M8.51611 10.0646H9.29031V10.8388H8.51611V10.0646Z" fill="white"/>
  <path d="M15.4839 6.96774C14.8045 6.96774 14.131 7.05213 13.4764 7.21045C13.2809 7.06065 13.0394 6.96774 12.7742 6.96774H9.48C10.1052 6.21406 10.4516 5.26684 10.4516 4.25806C10.4516 1.91032 8.54129 0 6.19355 0C3.84581 0 1.93548 1.91032 1.93548 4.25806C1.93548 5.26684 2.28194 6.21406 2.9071 6.96774H1.16129C0.521032 6.96774 0 7.48877 0 8.12903V15.871C0 16.5112 0.521032 17.0323 1.16129 17.0323H7.11755C7.85419 21.0259 11.3872 24 15.4839 24C20.1797 24 24 20.1797 24 15.4839C24 10.788 20.1797 6.96774 15.4839 6.96774ZM15.4839 23.2258C14.8065 23.2258 14.0315 21.9449 13.5697 19.7419H17.3884C16.9355 21.8717 16.1841 23.2258 15.4839 23.2258ZM13.4268 18.9677C13.3277 18.3503 13.253 17.6745 13.2085 16.9463C13.6339 16.7737 13.9355 16.3575 13.9355 15.871H17.7999C17.7817 16.9947 17.6853 18.0387 17.5328 18.9677H13.4268ZM13.9355 12H17.5328C17.6853 12.929 17.7813 13.973 17.7999 15.0968H13.9355V12ZM18.5775 15.871H23.2065C23.1511 16.9808 22.8643 18.0283 22.3885 18.9677H18.3201C18.4734 17.9787 18.5605 16.9212 18.5775 15.871ZM18.5775 15.0968C18.5605 14.0466 18.4734 12.989 18.3197 12H22.3881C22.8643 12.9395 23.1511 13.987 23.2061 15.0968H18.5775ZM21.943 11.2258H18.1827C17.9071 9.84503 17.491 8.65277 16.9417 7.884C19.0246 8.2831 20.8126 9.51716 21.943 11.2258ZM17.3884 11.2258H13.9355V8.12903C13.9355 8.05161 13.9274 7.97613 13.9126 7.90297C14.4271 7.7969 14.9535 7.74194 15.4839 7.74194C16.1841 7.74194 16.9355 9.096 17.3884 11.2258ZM2.70968 4.25806C2.70968 2.33729 4.27277 0.774194 6.19355 0.774194C8.11432 0.774194 9.67742 2.33729 9.67742 4.25806C9.67742 5.32374 9.20245 6.30232 8.376 6.96774H6.58065V6.12232C7.03006 5.96206 7.35484 5.53626 7.35484 5.03226C7.35484 4.392 6.83381 3.87097 6.19355 3.87097C5.98026 3.87097 5.80645 3.69716 5.80645 3.48387C5.80645 3.27058 5.98026 3.09677 6.19355 3.09677C6.40684 3.09677 6.58065 3.27058 6.58065 3.48387H7.35484C7.35484 2.97987 7.03006 2.55406 6.58065 2.39381V1.54839H5.80645V2.39381C5.35703 2.55406 5.03226 2.97987 5.03226 3.48387C5.03226 4.12413 5.55329 4.64516 6.19355 4.64516C6.40684 4.64516 6.58065 4.81897 6.58065 5.03226C6.58065 5.24555 6.40684 5.41935 6.19355 5.41935C5.98026 5.41935 5.80645 5.24555 5.80645 5.03226H5.03226C5.03226 5.53626 5.35703 5.96206 5.80645 6.12232V6.96774H4.0111C3.18465 6.30232 2.70968 5.32335 2.70968 4.25806ZM0.774194 15.871V8.12903C0.774194 7.91574 0.948 7.74194 1.16129 7.74194H12.7742C12.9875 7.74194 13.1613 7.91574 13.1613 8.12903V15.871C13.1613 16.0843 12.9875 16.2581 12.7742 16.2581H1.16129C0.948 16.2581 0.774194 16.0843 0.774194 15.871ZM12.4359 17.0323C12.4777 17.6814 12.5481 18.3348 12.6476 18.9677H8.58039C8.27342 18.3646 8.04426 17.7163 7.9049 17.0323H12.4359ZM9.02748 19.7419H12.7866C13.0606 21.1018 13.4764 22.3068 14.0323 23.0853C11.9679 22.6866 10.1671 21.4568 9.02748 19.7419ZM16.9417 23.0837C17.491 22.315 17.9071 21.1231 18.1827 19.7419H21.943C20.8126 21.4506 19.0246 22.6846 16.9417 23.0837Z" fill="white"/>
</svg>