<svg xmlns="http://www.w3.org/2000/svg" width="78" height="78" viewBox="0 0 78 78" fill="none">
<path fill-rule="evenodd" clip-rule="evenodd" d="M37.738 8.63818C38.5021 8.12874 39.4976 8.12874 40.262 8.63818L67.365 26.707C69.238 27.9555 68.354 30.8749 66.103 30.8749H11.8967C9.64577 30.8749 8.76187 27.9556 10.6347 26.707L37.738 8.63818ZM39 11.7029L15.1169 27.6249H62.8829L39 11.7029ZM65.5622 29.4111C65.5619 29.4108 65.5626 29.4115 65.5622 29.4111V29.4111Z" fill="#5A4315"/>
<path fill-rule="evenodd" clip-rule="evenodd" d="M58.5 55.25C57.6027 55.25 56.875 54.5223 56.875 53.625V35.75C56.875 34.8527 57.6027 34.125 58.5 34.125C59.3973 34.125 60.125 34.8527 60.125 35.75V53.625C60.125 54.5223 59.3973 55.25 58.5 55.25Z" fill="#5A4315"/>
<path fill-rule="evenodd" clip-rule="evenodd" d="M45.5 55.25C44.6027 55.25 43.875 54.5223 43.875 53.625V35.75C43.875 34.8527 44.6027 34.125 45.5 34.125C46.3973 34.125 47.125 34.8527 47.125 35.75V53.625C47.125 54.5223 46.3973 55.25 45.5 55.25Z" fill="#5A4315"/>
<path fill-rule="evenodd" clip-rule="evenodd" d="M32.5 55.25C31.6025 55.25 30.875 54.5223 30.875 53.625V35.75C30.875 34.8527 31.6025 34.125 32.5 34.125C33.3973 34.125 34.125 34.8527 34.125 35.75V53.625C34.125 54.5223 33.3973 55.25 32.5 55.25Z" fill="#5A4315"/>
<path fill-rule="evenodd" clip-rule="evenodd" d="M19.5 55.25C18.6025 55.25 17.875 54.5223 17.875 53.625V35.75C17.875 34.8527 18.6025 34.125 19.5 34.125C20.3975 34.125 21.125 34.8527 21.125 35.75V53.625C21.125 54.5223 20.3975 55.25 19.5 55.25Z" fill="#5A4315"/>
<path fill-rule="evenodd" clip-rule="evenodd" d="M11.375 63.375C11.375 60.6827 13.5576 58.5 16.25 58.5H61.75C64.4423 58.5 66.625 60.6827 66.625 63.375C66.625 66.0673 64.4423 68.25 61.75 68.25H16.25C13.5576 68.25 11.375 66.0673 11.375 63.375ZM16.25 61.75C15.3525 61.75 14.625 62.4777 14.625 63.375C14.625 64.2723 15.3525 65 16.25 65H61.75C62.6473 65 63.375 64.2723 63.375 63.375C63.375 62.4777 62.6473 61.75 61.75 61.75H16.25Z" fill="#5A4315"/>
</svg>