<svg xmlns="http://www.w3.org/2000/svg" width="26" height="24" viewBox="0 0 26 24" fill="none">
  <path d="M24.3155 20.9042H24.2722V20.3435C24.2722 19.8723 23.8889 19.4889 23.4176 19.4889H22.3997V18.7157C22.3997 18.3484 22.1109 18.0481 21.7486 18.0278V10.7599C22.1109 10.7396 22.3997 10.4393 22.3997 10.072V9.29883H23.3873C23.7636 9.29883 24.0697 8.99273 24.0697 8.6164V7.88771H24.5888C24.8942 7.88771 25.1428 7.63918 25.1428 7.33378V6.70397C25.1428 6.50031 25.0315 6.31363 24.8523 6.21669L16.6755 1.79483C16.5019 1.7008 16.2853 1.76555 16.1916 1.93907C16.0978 2.11254 16.1623 2.32923 16.3358 2.42298L24.4286 6.79943V7.17352H1.57141V6.80252L13.1755 0.713924L14.8643 1.62726C15.0379 1.7212 15.2545 1.65649 15.3483 1.48302C15.4421 1.30955 15.3775 1.09286 15.204 0.999114L13.5152 0.085734C13.3066 -0.0270778 13.0566 -0.0286466 12.8465 0.0815504L1.15391 6.21508C0.970884 6.31106 0.857217 6.49903 0.857217 6.70564V7.33373C0.857217 7.63918 1.10575 7.88767 1.4112 7.88767H1.93028V8.6164C1.93028 8.99268 2.23639 9.29883 2.61272 9.29883H3.60031V10.072C3.60031 10.4393 3.88906 10.7396 4.25136 10.7599V15.4913C4.25136 15.6886 4.41124 15.8484 4.60843 15.8484C4.80563 15.8484 4.9655 15.6885 4.9655 15.4913V10.7619H6.10817V18.0259H4.96555V17.1696C4.96555 16.9724 4.80567 16.8125 4.60848 16.8125C4.41129 16.8125 4.25141 16.9724 4.25141 17.1696V18.0278C3.88911 18.0481 3.60035 18.3484 3.60035 18.7157V19.4889H2.58239C2.11117 19.4889 1.72776 19.8723 1.72776 20.3435V20.9042H1.68446C1.21319 20.9042 0.829834 21.2876 0.829834 21.7589V22.5057C0.829834 22.7969 1.06672 23.0338 1.35786 23.0338H24.6421C24.9333 23.0338 25.1702 22.7969 25.1702 22.5057V21.7589C25.1702 21.2876 24.7868 20.9042 24.3155 20.9042ZM2.64447 8.58469V7.88771H23.3555V8.58469H2.64447ZM21.6855 18.74V19.4889H19.2407V18.74H21.6855ZM19.8918 18.0258V10.7619H21.0344V18.0258H19.8918ZM19.2407 10.0477V9.29888H21.6855V10.0477H19.2407ZM16.7732 18.0278V10.7599C17.1355 10.7396 17.4243 10.4393 17.4243 10.072V9.29883H18.5265V10.072C18.5265 10.4393 18.8153 10.7396 19.1776 10.7599V18.0278C18.8153 18.0481 18.5265 18.3484 18.5265 18.7157V19.4889H17.4243V18.7157C17.4243 18.3484 17.1355 18.0481 16.7732 18.0278ZM16.7101 18.74V19.4889H14.2653V18.74H16.7101ZM14.9164 18.0258V10.7619H16.059V18.0258H14.9164ZM14.2653 10.0477V9.29888H16.7101V10.0477H14.2653ZM11.7978 18.0278V10.7599C12.1601 10.7396 12.4489 10.4393 12.4489 10.072V9.29883H13.5511V10.072C13.5511 10.4393 13.8399 10.7396 14.2022 10.7599V18.0278C13.8399 18.0481 13.5511 18.3484 13.5511 18.7157V19.4889H12.4489V18.7157C12.4489 18.3484 12.1601 18.0481 11.7978 18.0278ZM11.4407 18.74H11.7347V19.4889H9.2899V18.74H9.58389H11.4407ZM9.94096 18.0258V10.7619H11.0836V18.0258H9.94096ZM9.2899 10.0477V9.29888H11.7347V10.0477H9.2899ZM6.8224 18.0278V10.7599C7.1847 10.7396 7.47346 10.4393 7.47346 10.072V9.29883H8.57572V10.072C8.57572 10.4393 8.86447 10.7396 9.22677 10.7599V18.0278C8.86447 18.0481 8.57572 18.3484 8.57572 18.7157V19.4889H7.47346V18.7157C7.47346 18.3484 7.1847 18.0481 6.8224 18.0278ZM4.31449 10.0477V9.29888H6.75927V10.0477H4.31449ZM4.31449 18.74H4.60848H6.46533H6.75932V19.4889H4.31449V18.74ZM2.44195 20.3435C2.44195 20.2661 2.50494 20.2031 2.58239 20.2031H23.4176C23.4951 20.2031 23.558 20.2661 23.558 20.3435V20.9042H2.44195V20.3435ZM24.456 22.3196H1.54402V21.7589C1.54402 21.6815 1.60701 21.6184 1.68446 21.6184H24.3155C24.393 21.6184 24.456 21.6814 24.456 21.7589V22.3196Z" fill="white"/>
</svg>