<svg xmlns="http://www.w3.org/2000/svg" width="24" height="24" viewBox="0 0 24 24" fill="none">
  <path d="M5.14647 8.57143C5.26013 8.57143 5.36914 8.52628 5.44951 8.4459C5.52989 8.36553 5.57504 8.25652 5.57504 8.14286V2.14286C5.57504 1.80186 5.7105 1.47484 5.95162 1.23372C6.19273 0.992602 6.51976 0.857143 6.86075 0.857143H8.57504V1.28571C8.57504 1.62671 8.7105 1.95373 8.95162 2.19485C9.19273 2.43597 9.51976 2.57143 9.86075 2.57143H14.1465C14.4875 2.57143 14.8145 2.43597 15.0556 2.19485C15.2967 1.95373 15.4322 1.62671 15.4322 1.28571V0.857143H17.1465C17.4875 0.857143 17.8145 0.992602 18.0556 1.23372C18.2967 1.47484 18.4322 1.80186 18.4322 2.14286V8.14286C18.4322 8.25652 18.4773 8.36553 18.5577 8.4459C18.6381 8.52628 18.7471 8.57143 18.8608 8.57143C18.9744 8.57143 19.0834 8.52628 19.1638 8.4459C19.2442 8.36553 19.2893 8.25652 19.2893 8.14286V2.14286C19.2893 1.57454 19.0636 1.02949 18.6617 0.627628C18.2598 0.225765 17.7148 0 17.1465 0H6.86075C6.29243 0 5.74739 0.225765 5.34552 0.627628C4.94366 1.02949 4.7179 1.57454 4.7179 2.14286V8.14286C4.7179 8.25652 4.76305 8.36553 4.84342 8.4459C4.92379 8.52628 5.0328 8.57143 5.14647 8.57143ZM14.575 0.857143V1.28571C14.575 1.39938 14.5299 1.50839 14.4495 1.58876C14.3691 1.66913 14.2601 1.71429 14.1465 1.71429H9.86075C9.74709 1.71429 9.63808 1.66913 9.55771 1.58876C9.47733 1.50839 9.43218 1.39938 9.43218 1.28571V0.857143H14.575Z" fill="white"/>
  <path d="M18.8608 15.4286C18.7471 15.4286 18.6381 15.4737 18.5577 15.5541C18.4773 15.6345 18.4322 15.7435 18.4322 15.8572V21.4286H5.57504V15.8572C5.57504 15.7435 5.52989 15.6345 5.44951 15.5541C5.36914 15.4737 5.26013 15.4286 5.14647 15.4286C5.0328 15.4286 4.92379 15.4737 4.84342 15.5541C4.76305 15.6345 4.7179 15.7435 4.7179 15.8572V21.8572C4.7179 22.4255 4.94366 22.9705 5.34552 23.3724C5.74739 23.7743 6.29243 24 6.86075 24H17.1465C17.7148 24 18.2598 23.7743 18.6617 23.3724C19.0636 22.9705 19.2893 22.4255 19.2893 21.8572V15.8572C19.2893 15.7435 19.2442 15.6345 19.1638 15.5541C19.0834 15.4737 18.9744 15.4286 18.8608 15.4286ZM17.1465 23.1429H6.86075C6.59549 23.1421 6.33695 23.0594 6.12058 22.9059C5.90421 22.7524 5.7406 22.5358 5.65218 22.2857H18.355C18.2666 22.5358 18.103 22.7524 17.8866 22.9059C17.6703 23.0594 17.4117 23.1421 17.1465 23.1429Z" fill="white"/>
  <path d="M22.7179 10.7142C22.4526 10.715 22.1941 10.7978 21.9777 10.9512C21.7614 11.1047 21.5977 11.3213 21.5093 11.5714H18.0036C17.8899 11.5714 17.7809 11.6165 17.7006 11.6969C17.6202 11.7773 17.575 11.8863 17.575 12C17.575 12.1136 17.6202 12.2226 17.7006 12.303C17.7809 12.3834 17.8899 12.4285 18.0036 12.4285H21.5093C21.588 12.6509 21.7262 12.8474 21.909 12.9964C22.0918 13.1455 22.3121 13.2414 22.5458 13.2736C22.7794 13.3058 23.0174 13.2732 23.2338 13.1792C23.4501 13.0852 23.6364 12.9336 23.7723 12.7408C23.9082 12.548 23.9885 12.3216 24.0043 12.0862C24.0202 11.8509 23.9709 11.6157 23.8621 11.4065C23.7532 11.1973 23.5889 11.022 23.3871 10.8999C23.1853 10.7778 22.9538 10.7136 22.7179 10.7142ZM22.7179 12.4285C22.6331 12.4285 22.5503 12.4034 22.4798 12.3563C22.4093 12.3092 22.3544 12.2423 22.322 12.164C22.2895 12.0856 22.281 11.9995 22.2976 11.9163C22.3141 11.8332 22.3549 11.7568 22.4149 11.6969C22.4748 11.637 22.5512 11.5962 22.6343 11.5796C22.7174 11.5631 22.8036 11.5716 22.8819 11.604C22.9602 11.6364 23.0272 11.6914 23.0742 11.7619C23.1213 11.8323 23.1465 11.9152 23.1465 12C23.1465 12.1136 23.1013 12.2226 23.0209 12.303C22.9406 12.3834 22.8316 12.4285 22.7179 12.4285Z" fill="white"/>
  <path d="M17.1465 9.85715C17.1465 9.97081 17.1916 10.0798 17.272 10.1602C17.3524 10.2406 17.4614 10.2857 17.575 10.2857H20.575C20.6887 10.2857 20.7977 10.2406 20.8781 10.1602C20.9585 10.0798 21.0036 9.97081 21.0036 9.85715V7.71429H21.5093C21.6104 8.00024 21.8094 8.24124 22.071 8.3947C22.3326 8.54816 22.64 8.6042 22.9389 8.55291C23.2379 8.50163 23.509 8.34631 23.7045 8.11443C23.9 7.88254 24.0072 7.58901 24.0072 7.28572C24.0072 6.98242 23.9 6.68889 23.7045 6.457C23.509 6.22512 23.2379 6.06981 22.9389 6.01852C22.64 5.96723 22.3326 6.02327 22.071 6.17673C21.8094 6.33019 21.6104 6.5712 21.5093 6.85715H20.575C20.4614 6.85715 20.3524 6.9023 20.272 6.98267C20.1916 7.06304 20.1465 7.17205 20.1465 7.28572V9.42857H17.575C17.4614 9.42857 17.3524 9.47373 17.272 9.5541C17.1916 9.63447 17.1465 9.74348 17.1465 9.85715ZM22.7179 6.85715C22.8027 6.85715 22.8855 6.88228 22.956 6.92937C23.0265 6.97646 23.0814 7.0434 23.1138 7.12171C23.1463 7.20002 23.1548 7.28619 23.1382 7.36933C23.1217 7.45246 23.0809 7.52883 23.0209 7.58876C22.961 7.6487 22.8846 7.68952 22.8015 7.70605C22.7184 7.72259 22.6322 7.7141 22.5539 7.68166C22.4756 7.64923 22.4086 7.5943 22.3616 7.52382C22.3145 7.45334 22.2893 7.37048 22.2893 7.28572C22.2893 7.17205 22.3345 7.06304 22.4149 6.98267C22.4952 6.9023 22.6042 6.85715 22.7179 6.85715Z" fill="white"/>
  <path d="M22.7179 15.4285C22.4526 15.4293 22.1941 15.512 21.9777 15.6655C21.7614 15.8189 21.5977 16.0356 21.5093 16.2857H21.0036V14.1428C21.0036 14.0291 20.9585 13.9201 20.8781 13.8398C20.7977 13.7594 20.6887 13.7142 20.575 13.7142H17.575C17.4614 13.7142 17.3524 13.7594 17.272 13.8398C17.1916 13.9201 17.1465 14.0291 17.1465 14.1428C17.1465 14.2565 17.1916 14.3655 17.272 14.4459C17.3524 14.5262 17.4614 14.5714 17.575 14.5714H20.1465V16.7142C20.1465 16.8279 20.1916 16.9369 20.272 17.0173C20.3524 17.0977 20.4614 17.1428 20.575 17.1428H21.5093C21.5879 17.3652 21.7262 17.5616 21.909 17.7107C22.0918 17.8597 22.3121 17.9556 22.5458 17.9879C22.7794 18.0201 23.0174 17.9875 23.2338 17.8935C23.4501 17.7995 23.6364 17.6478 23.7723 17.4551C23.9082 17.2623 23.9885 17.0358 24.0043 16.8005C24.0202 16.5652 23.9709 16.33 23.8621 16.1208C23.7532 15.9115 23.5889 15.7363 23.3871 15.6142C23.1853 15.4921 22.9538 15.4279 22.7179 15.4285ZM22.7179 17.1428C22.6331 17.1428 22.5503 17.1177 22.4798 17.0706C22.4093 17.0235 22.3544 16.9566 22.3219 16.8782C22.2895 16.7999 22.281 16.7138 22.2976 16.6306C22.3141 16.5475 22.3549 16.4711 22.4149 16.4112C22.4748 16.3513 22.5512 16.3104 22.6343 16.2939C22.7174 16.2774 22.8036 16.2858 22.8819 16.3183C22.9602 16.3507 23.0272 16.4057 23.0742 16.4761C23.1213 16.5466 23.1465 16.6295 23.1465 16.7142C23.1465 16.8279 23.1013 16.9369 23.0209 17.0173C22.9406 17.0977 22.8316 17.1428 22.7179 17.1428Z" fill="white"/>
  <path d="M1.28932 13.2857C1.55459 13.2849 1.81312 13.2021 2.0295 13.0487C2.24587 12.8952 2.40948 12.6786 2.4979 12.4285H6.00361C6.11727 12.4285 6.22628 12.3834 6.30666 12.303C6.38703 12.2226 6.43218 12.1136 6.43218 11.9999C6.43218 11.8863 6.38703 11.7773 6.30666 11.6969C6.22628 11.6165 6.11727 11.5714 6.00361 11.5714H2.4979C2.41927 11.349 2.28099 11.1525 2.09819 11.0035C1.91539 10.8544 1.69511 10.7585 1.46146 10.7263C1.2278 10.6941 0.989785 10.7267 0.773449 10.8207C0.557113 10.9147 0.370797 11.0663 0.234891 11.2591C0.0989846 11.4519 0.018726 11.6783 0.00289845 11.9137C-0.0129291 12.149 0.0362845 12.3842 0.145153 12.5934C0.254022 12.8026 0.41835 12.9779 0.620154 13.1C0.821958 13.2221 1.05346 13.2863 1.28932 13.2857ZM1.28932 11.5714C1.37409 11.5714 1.45695 11.5965 1.52743 11.6436C1.5979 11.6907 1.65284 11.7576 1.68527 11.8359C1.71771 11.9142 1.7262 12.0004 1.70966 12.0836C1.69312 12.1667 1.65231 12.2431 1.59237 12.303C1.53243 12.3629 1.45607 12.4037 1.37293 12.4203C1.2898 12.4368 1.20363 12.4283 1.12532 12.3959C1.04701 12.3635 0.980072 12.3085 0.93298 12.238C0.885888 12.1676 0.860753 12.0847 0.860753 11.9999C0.860753 11.8863 0.905906 11.7773 0.986279 11.6969C1.06665 11.6165 1.17566 11.5714 1.28932 11.5714Z" fill="white"/>
  <path d="M6.86075 14.1428C6.86075 14.0291 6.8156 13.9201 6.73523 13.8398C6.65486 13.7594 6.54585 13.7142 6.43218 13.7142H3.43218C3.31852 13.7142 3.20951 13.7594 3.12914 13.8398C3.04876 13.9201 3.00361 14.0291 3.00361 14.1428V16.2857H2.4979C2.3968 15.9997 2.19787 15.7587 1.93626 15.6052C1.67466 15.4518 1.36722 15.3957 1.0683 15.447C0.769371 15.4983 0.498199 15.6536 0.30271 15.8855C0.10722 16.1174 0 16.4109 0 16.7142C0 17.0175 0.10722 17.3111 0.30271 17.5429C0.498199 17.7748 0.769371 17.9301 1.0683 17.9814C1.36722 18.0327 1.67466 17.9767 1.93626 17.8232C2.19787 17.6698 2.3968 17.4288 2.4979 17.1428H3.43218C3.54585 17.1428 3.65486 17.0977 3.73523 17.0173C3.8156 16.9369 3.86075 16.8279 3.86075 16.7142V14.5714H6.43218C6.54585 14.5714 6.65486 14.5262 6.73523 14.4459C6.8156 14.3655 6.86075 14.2565 6.86075 14.1428ZM1.28933 17.1428C1.20456 17.1428 1.1217 17.1177 1.05122 17.0706C0.980746 17.0235 0.925815 16.9566 0.893378 16.8782C0.86094 16.7999 0.852453 16.7138 0.868989 16.6306C0.885526 16.5475 0.926343 16.4711 0.98628 16.4112C1.04622 16.3513 1.12258 16.3104 1.20572 16.2939C1.28885 16.2774 1.37502 16.2858 1.45333 16.3183C1.53164 16.3507 1.59858 16.4057 1.64567 16.4761C1.69276 16.5466 1.7179 16.6295 1.7179 16.7142C1.7179 16.8279 1.67274 16.9369 1.59237 17.0173C1.512 17.0977 1.40299 17.1428 1.28933 17.1428Z" fill="white"/>
  <path d="M1.28932 8.57142C1.55459 8.57068 1.81312 8.4879 2.0295 8.33445C2.24587 8.181 2.40948 7.96437 2.4979 7.71428H3.00361V9.85714C3.00361 9.9708 3.04876 10.0798 3.12914 10.1602C3.20951 10.2406 3.31852 10.2857 3.43218 10.2857H6.43218C6.54585 10.2857 6.65486 10.2406 6.73523 10.1602C6.8156 10.0798 6.86075 9.9708 6.86075 9.85714C6.86075 9.74347 6.8156 9.63446 6.73523 9.55409C6.65486 9.47372 6.54585 9.42857 6.43218 9.42857H3.86075V7.28571C3.86075 7.17205 3.8156 7.06304 3.73523 6.98266C3.65485 6.90229 3.54585 6.85714 3.43218 6.85714H2.4979C2.41927 6.63476 2.28099 6.4383 2.09819 6.28925C1.91539 6.1402 1.69511 6.04431 1.46146 6.01207C1.2278 5.97983 0.989785 6.01248 0.773449 6.10646C0.557113 6.20043 0.370797 6.35211 0.234891 6.54488C0.0989846 6.73766 0.018726 6.9641 0.00289845 7.19944C-0.0129291 7.43477 0.0362845 7.66993 0.145153 7.87916C0.254022 8.0884 0.41835 8.26366 0.620154 8.38576C0.821958 8.50785 1.05346 8.57209 1.28932 8.57142ZM1.28932 6.85714C1.37409 6.85714 1.45695 6.88227 1.52743 6.92937C1.5979 6.97646 1.65284 7.04339 1.68527 7.1217C1.71771 7.20001 1.7262 7.28619 1.70966 7.36932C1.69312 7.45245 1.65231 7.52882 1.59237 7.58876C1.53243 7.64869 1.45607 7.68951 1.37293 7.70605C1.2898 7.72258 1.20363 7.7141 1.12532 7.68166C1.04701 7.64922 0.980072 7.59429 0.93298 7.52381C0.885888 7.45333 0.860753 7.37047 0.860753 7.28571C0.860753 7.17205 0.905906 7.06304 0.986279 6.98266C1.06665 6.90229 1.17566 6.85714 1.28932 6.85714Z" fill="white"/>
  <path d="M12.8608 10.7143C12.8608 10.828 12.9059 10.937 12.9863 11.0173C13.0667 11.0977 13.1757 11.1429 13.2893 11.1429C13.403 11.1429 13.512 11.0977 13.5924 11.0173C13.6728 10.937 13.7179 10.828 13.7179 10.7143C13.7179 10.487 13.6276 10.2689 13.4669 10.1082C13.3061 9.94745 13.0881 9.85714 12.8608 9.85714H12.4322V9.42857C12.4322 9.31491 12.387 9.2059 12.3067 9.12553C12.2263 9.04515 12.1173 9 12.0036 9C11.89 9 11.7809 9.04515 11.7006 9.12553C11.6202 9.2059 11.5751 9.31491 11.5751 9.42857V9.85714H11.1465C10.9192 9.85714 10.7011 9.94745 10.5404 10.1082C10.3796 10.2689 10.2893 10.487 10.2893 10.7143V11.5714C10.2893 11.7988 10.3796 12.0168 10.5404 12.1775C10.7011 12.3383 10.9192 12.4286 11.1465 12.4286H12.8608V13.2857H11.1465C11.1465 13.172 11.1013 13.063 11.021 12.9827C10.9406 12.9023 10.8316 12.8571 10.7179 12.8571C10.6042 12.8571 10.4952 12.9023 10.4149 12.9827C10.3345 13.063 10.2893 13.172 10.2893 13.2857C10.2893 13.513 10.3796 13.7311 10.5404 13.8918C10.7011 14.0526 10.9192 14.1429 11.1465 14.1429H11.5751V14.5714C11.5751 14.6851 11.6202 14.7941 11.7006 14.8745C11.7809 14.9548 11.89 15 12.0036 15C12.1173 15 12.2263 14.9548 12.3067 14.8745C12.387 14.7941 12.4322 14.6851 12.4322 14.5714V14.1429H12.8608C13.0881 14.1429 13.3061 14.0526 13.4669 13.8918C13.6276 13.7311 13.7179 13.513 13.7179 13.2857V12.4286C13.7179 12.2012 13.6276 11.9832 13.4669 11.8225C13.3061 11.6617 13.0881 11.5714 12.8608 11.5714H11.1465V10.7143H12.8608Z" fill="white"/>
  <path d="M12.0036 7.28577C11.0712 7.28577 10.1598 7.56225 9.38449 8.08027C8.60923 8.59828 8.00499 9.33455 7.64818 10.196C7.29136 11.0574 7.19801 12.0053 7.37991 12.9198C7.56181 13.8342 8.0108 14.6743 8.67011 15.3336C9.32941 15.9929 10.1694 16.4419 11.0839 16.6238C11.9984 16.8057 12.9463 16.7123 13.8077 16.3555C14.6691 15.9987 15.4054 15.3944 15.9234 14.6192C16.4414 13.8439 16.7179 12.9324 16.7179 12.0001C16.7179 10.7497 16.2212 9.55065 15.3371 8.66655C14.453 7.78245 13.2539 7.28577 12.0036 7.28577ZM12.0036 15.8572C11.2407 15.8572 10.495 15.631 9.8607 15.2071C9.22639 14.7833 8.73201 14.1809 8.44007 13.4761C8.14814 12.7713 8.07175 11.9958 8.22058 11.2476C8.36941 10.4993 8.73677 9.81207 9.2762 9.27264C9.81563 8.73321 10.5029 8.36585 11.2511 8.21702C11.9993 8.06819 12.7749 8.14458 13.4797 8.43652C14.1845 8.72845 14.7869 9.22283 15.2107 9.85714C15.6345 10.4914 15.8608 11.2372 15.8608 12.0001C15.8608 13.023 15.4544 14.0041 14.731 14.7275C14.0077 15.4508 13.0266 15.8572 12.0036 15.8572Z" fill="white"/>
</svg>