<svg xmlns="http://www.w3.org/2000/svg" width="25" height="19" viewBox="0 0 25 19" fill="none">
  <path fill-rule="evenodd" clip-rule="evenodd" d="M6.55842 5.69204L11.0885 0.499939C11.3651 0.182517 11.7664 0 12.187 0C12.6076 0 13.0089 0.182517 13.2855 0.499939L17.8155 5.69204L22.1381 2.96222C22.6222 2.65727 23.24 2.66294 23.7184 2.97809C24.1968 3.29325 24.4462 3.86007 24.3556 4.42576L22.3014 17.2609C22.1415 18.2631 21.2766 18.9999 20.2631 18.9999H4.11088C3.0974 18.9999 2.23242 18.2631 2.07258 17.2609L0.0184107 4.42576C-0.0722811 3.86007 0.177121 3.29325 0.655521 2.97809C1.13392 2.66294 1.75176 2.65727 2.23583 2.96222L6.55842 5.69204ZM1.78237 4.68763L3.75151 16.9922C3.77985 17.1691 3.93176 17.2995 4.11088 17.2995H20.2631C20.4422 17.2995 20.5941 17.1691 20.6225 16.9922L22.5916 4.68763L18.5479 7.24061C17.9402 7.62491 17.1433 7.50815 16.6706 6.9674L12.187 1.82744L7.70341 6.9674C7.23068 7.50815 6.43372 7.62491 5.82609 7.24061L1.78237 4.68763Z" fill="white"/>
  <path fill-rule="evenodd" clip-rule="evenodd" d="M21.3461 13.4677C21.818 13.4677 22.2009 13.6793 22.2009 13.94C22.2009 14.2007 21.818 14.4124 21.3461 14.4124H3.02781C2.55601 14.4124 2.1731 14.2007 2.1731 13.94C2.1731 13.6793 2.55601 13.4677 3.02781 13.4677H21.3461Z" fill="white"/>
</svg>